<svg version="1.0" xmlns="http://www.w3.org/2000/svg" width="682.667" height="682.667" viewBox="0 0 512 512"><path d="M0 256v256h512V0H0v256zm241-142.9c-24.6 2.8-47.7 10.9-67.1 23.4-3.6 2.4-7.5 5-8.5 5.8-1 .9-4.8 3.9-8.4 6.8-3.6 2.9-5.6 4.2-4.5 3 3.4-4 15.7-13.6 23-18.1 21.1-13 48.6-21.9 67-21.8l6 .1-7.5.8zm16 3.9-9.5.6 9.5.4 9.5.3-12 .8c-32.5 2.1-59.4 12.5-86.5 33.4-3.2 2.5-6.6 5.2-7.4 6.1-.9.8-1.6 1.1-1.6.5 0-.6-1.2-1.4-2.7-1.7l-2.6-.7 3.9-3.5c7.3-6.5 11.9-10 18.9-14.2 25.9-15.8 50.2-23 77-22.7l13 .1-9.5.6zm-21.3 43.4c6.6 3.1 12.9 9 16.8 15.5 1.7 2.8 3.2 5.1 3.5 5.1.3 0 1.3-1.8 2.3-3.9 2.7-5.8 8.8-12.3 14.8-15.6 5.2-2.9 5.9-3 17.9-3 11.3 0 13 .2 17.5 2.5 6.4 3.1 14.6 11.3 17.7 17.6 5.4 10.8 5.3 8.8 5.3 94.4v79.5h-18l-.5-78c-.4-53-.9-79-1.6-81.1-2.1-5.7-4.3-9.1-8.3-12.7-9.9-8.9-25-6.6-32.2 5-5.5 8.8-5.3 4.9-5.9 88.8l-.5 78-8.4.3c-6.1.2-8.7-.1-9.3-1-.4-.7-.8-35.1-.8-76.3 0-41.3-.4-76.6-.9-78.5-4.6-19.8-22.7-28.2-36.4-16.9-3.6 3-6.8 8-9 14.4-.7 2-1.3 29.4-1.7 80.5l-.5 77.5h-18v-79c0-85.1-.1-83.1 5.3-94 5-10 10.4-15.2 20.1-19.2 8.2-3.3 23.4-3.3 30.8.1zm-81.7 1.7c0 1.1-.4 1.8-1 1.4-.5-.3-.7-1.2-.3-2 .7-2.1 1.3-1.9 1.3.6zm-20.6 13.1c-.4.7-1.5 2.4-2.4 3.8-2.9 4.3-11.1 20.3-10.6 20.7.2.3 1.2-1 2.2-2.9.9-1.8 4.1-7 7.1-11.5l5.5-8.2 2.1 1.9c1.1 1.1 2.4 2 2.8 2 .4 0-1.2 3.2-3.6 7.1-13.7 22.2-21.4 51.7-20.2 77 2.6 53.2 31.4 98.1 77.2 120.5 31.9 15.6 69.7 19.4 102.3 10.4 8.4-2.3 10.4-2.5 4.7-.4-10.7 4.1-25.1 6.5-41.1 7.1-33.8 1.2-60.4-6.5-88.7-25.4-17.3-11.6-34.2-29.3-44.6-46.6-4.6-7.7-12.4-25.3-14.4-32.7-4.2-15.3-5.1-22.5-5.1-39.5.1-25.3 3.3-40.7 12.5-60.5 3.6-7.7 13.5-24 14.6-24 .2 0 .1.6-.3 1.2z"/></svg>