<?xml version="1.0" standalone="no"?>
<!DOCTYPE svg PUBLIC "-//W3C//DTD SVG 20010904//EN"
 "http://www.w3.org/TR/2001/REC-SVG-20010904/DTD/svg10.dtd">
<svg version="1.0" xmlns="http://www.w3.org/2000/svg"
 width="512.000000pt" height="512.000000pt" viewBox="0 0 512.000000 512.000000"
 preserveAspectRatio="xMidYMid meet">
<metadata>
Created by potrace 1.14, written by Peter Selinger 2001-2017
</metadata>
<g transform="translate(0.000000,512.000000) scale(0.100000,-0.100000)"
fill="#000000" stroke="none">
<path d="M0 2560 l0 -2560 2560 0 2560 0 0 2560 0 2560 -2560 0 -2560 0 0
-2560z m2410 1429 c-246 -28 -477 -109 -671 -234 -36 -24 -75 -50 -85 -58 -10
-9 -48 -39 -84 -68 -36 -29 -56 -42 -45 -30 34 40 157 136 230 181 211 130
486 219 670 218 l60 -1 -75 -8z m160 -39 l-95 -6 95 -4 95 -3 -120 -8 c-325
-21 -594 -125 -865 -334 -32 -25 -66 -52 -74 -61 -9 -8 -16 -11 -16 -5 0 6
-12 14 -27 17 l-26 7 39 35 c73 65 119 100 189 142 259 158 502 230 770 227
l130 -1 -95 -6z m-213 -434 c66 -31 129 -90 168 -155 17 -28 32 -51 35 -51 3
0 13 18 23 39 27 58 88 123 148 156 52 29 59 30 179 30 113 0 130 -2 175 -25
64 -31 146 -113 177 -176 54 -108 53 -88 53 -944 l0 -795 -90 0 -90 0 -5 780
c-4 530 -9 790 -16 811 -21 57 -43 91 -83 127 -99 89 -250 66 -322 -50 -55
-88 -53 -49 -59 -888 l-5 -780 -84 -3 c-61 -2 -87 1 -93 10 -4 7 -8 351 -8
763 0 413 -4 766 -9 785 -46 198 -227 282 -364 169 -36 -30 -68 -80 -90 -144
-7 -20 -13 -294 -17 -805 l-5 -775 -90 0 -90 0 0 790 c0 851 -1 831 53 940 50
100 104 152 201 192 82 33 234 33 308 -1z m-817 -17 c0 -11 -4 -18 -10 -14 -5
3 -7 12 -3 20 7 21 13 19 13 -6z m-206 -131 c-4 -7 -15 -24 -24 -38 -29 -43
-111 -203 -106 -207 2 -3 12 10 22 29 9 18 41 70 71 115 l55 82 21 -19 c11
-11 24 -20 28 -20 4 0 -12 -32 -36 -71 -137 -222 -214 -517 -202 -770 26 -532
314 -981 772 -1205 319 -156 697 -194 1023 -104 84 23 104 25 47 4 -107 -41
-251 -65 -411 -71 -338 -12 -604 65 -887 254 -173 116 -342 293 -446 466 -46
77 -124 253 -144 327 -42 153 -51 225 -51 395 1 253 33 407 125 605 36 77 135
240 146 240 2 0 1 -6 -3 -12z"/>
</g>
</svg>
